<svg width="96" height="96" viewBox="0 0 96 96" xmlns="http://www.w3.org/2000/svg"><title>American</title><g stroke="#000" stroke-width="2" fill="none" fill-rule="evenodd"><path d="M39.672 70.423h-28.5c4.667 5.452 1.167 9.048 5.333 12.12H76.34c4.166-3.072.666-6.668 5.333-12.12h-42z"></path><path d="M18.714 74.542h55.667" stroke-linecap="round"></path><path d="M71.38 44.792c1.076.55 3.6 1.785 5.084 3.417 2.5 2.75-.268 9.732-7.333 16.666M36.047 44.125c2.656-3.115 7.946-8.3 14.583-8.333 8.264-.04 8.284.9 12.58 3.265M19.13 64.625c-4.166-4.667.909-10.047 4.25-11.583" stroke-linecap="square"></path><path d="M71.971 41.554l7.819-6.664.184.215a2.723 2.723 0 0 0 4.144-3.533 2.72 2.72 0 0 0-2.805-.85c.43-.933.317-2.07-.394-2.903a2.723 2.723 0 0 0-4.144 3.532l.216.254-7.819 6.665" stroke-linecap="round" stroke-linejoin="round"></path><path d="M62.632 56.554a7.753 7.753 0 0 1-10.057-11.8c1.507-1.285 5.01-1.381 8.013-2.55 3.487-1.358 6.636-6.114 9.778-2.428 2.97 3.486-1.745 5.527-3.556 8.742-1.614 2.865-2.642 6.727-4.178 8.036zM34.425 55.92c1.512-.459 3.353-.632 5.308-.429 4.774.498 9.229 2.508 8.95 5.17-.276 2.66-3.98 5.153-8.753 4.655-4.775-.498-10.42-.335-11.92-4.695-1.525-4.435 1.995-8.262 2.426-15.275 0 0 6.432 5.502 6.278 9.862M20.559 25.41a5.74 5.74 0 0 0-.011 8.131 5.74 5.74 0 0 1-.012 8.132M39.826 12a5.74 5.74 0 0 0-.01 8.131 5.74 5.74 0 0 1-.013 8.132M30.536 18.41a5.74 5.74 0 0 1 .011 8.131 5.74 5.74 0 0 0 .012 8.132" stroke-linecap="round"></path></g></svg>