<svg width="96" height="96" viewBox="0 0 96 96" xmlns="http://www.w3.org/2000/svg"><title>Burger</title><g fill="none" fill-rule="evenodd"><g stroke="#000" stroke-width="2"><path d="M27.31 40.658c-.741 0-1.32-.652-1.233-1.389C27.05 30.713 37.04 26 47.835 26c10.813 0 20.819 4.45 21.764 13.273a1.25 1.25 0 0 1-1.236 1.385H27.31zM54.694 54.988c0-1.922-4.266-4.754-10.296-4.754H29.36a3.236 3.236 0 0 0-3.236 3.24v.194a3.24 3.24 0 0 0 3.242 3.24H66.31a3.24 3.24 0 0 0 3.24-3.24v-.194a3.24 3.24 0 0 0-3.24-3.24h-1.32c-6.029 0-10.295 2.832-10.295 4.754M26 61.467v3.332a3.791 3.791 0 0 0 3.793 3.79h36.089a3.79 3.79 0 0 0 3.791-3.79v-3.332H26zM26.08 44.121h1.99c2.305 0 3.56 1.244 4.885 1.973 1.324.728 3.164.722 4.62 0l1.843-.914a4.787 4.787 0 0 1 4.264 0l1.841.912a5.207 5.207 0 0 0 4.626 0l1.84-.912a4.791 4.791 0 0 1 4.266 0l1.842.914c1.457.722 3.297.728 4.621 0 1.324-.729 2.58-1.973 4.883-1.973h1.992"></path></g></g></svg>