<svg width="96" height="96" viewBox="0 0 96 96" xmlns="http://www.w3.org/2000/svg"><title>Indian</title><g fill="none" fill-rule="evenodd"><g stroke="#000" stroke-width="1.7"><path d="M81.103 59.294c0 3.194-5.802 5.784-12.958 5.784-7.157 0-12.959-2.59-12.959-5.784s5.802-5.784 12.96-5.784c7.155 0 12.957 2.59 12.957 5.784z"></path><path d="M81.103 59.294c.811 8.053-4.694 12.825-12.958 12.825-7.97 0-13.403-4.844-12.959-12.825M60.504 60.694c4.501-3.178 12.859-2.438 15.167 0M40.942 59.294c0 3.194-5.802 5.784-12.958 5.784-7.157 0-12.959-2.59-12.959-5.784s5.802-5.784 12.96-5.784c7.155 0 12.957 2.59 12.957 5.784z"></path><path d="M40.942 59.294c.811 8.053-4.694 12.825-12.958 12.825-7.97 0-13.403-4.844-12.959-12.825M26.479 61.907l-3.302-.633M21.675 59.132L18.67 60.64M26.479 59.246L23.8 57.214M36.389 58.083l-1.417 3.049M29.703 56.607l2.371 2.383M30.664 61.685l-2.716-1.982M76.692 36.687c0 7.007-12.726 12.687-28.424 12.687-15.698 0-28.424-5.68-28.424-12.687S32.57 24 48.268 24c15.698 0 28.424 5.68 28.424 12.687zM23.782 29.313c-.429-1.143-1.329-2.194-2.213-2.444-3.212-.913-9.367 1.759-8.483 5.224.905 3.552 4.975 2.951 7.2 2.835"></path><path d="M72.725 29.233c.416-1.109 1.289-2.127 2.146-2.37 3.116-.885 9.085 1.706 8.228 5.067-.878 3.446-4.825 2.863-6.982 2.75M56.828 40.746l-.464-2.248a1.562 1.562 0 0 1 1.21-1.84l3.857-.796a1.562 1.562 0 0 1 1.84 1.21l.464 2.248M36.496 38.584c-.679-.522-.574-1.281-.053-1.96l2.347-3.056a1.561 1.561 0 0 1 2.183-.286l3.124 2.399c.68.52.808 1.504.286 2.183"></path><path d="M30.889 38.288c.701.708 2.633 1.45 3.583 1.15.495-.157 1.097-.78 1.564-1.007.957-.466 2.026-.65 3.08-.791.65-.089 1.309-.162 1.962-.099 1.153.112 2.236.642 3.39.75 1.155.108 3.878-.752 4.337-2.601M52.114 43.114c1.08-.816 2.196-1.648 3.5-2.014 1.11-.312 2.286-.264 3.43-.406.926-.115 1.833-.356 2.718-.648 1.046-.345 4.772-2.289 5.054-4.148M22.82 35.689c1.403-1.356 3.84-1.08 5.844-1.917 2.732-1.139 3.401-2.718 6.84-2.693M43.976 31.079c4.518-2.29 9.66-2.536 13.185-.341 4.25 2.646 11.093.126 15.26 4.08M25.628 50.96c-3.633-4.112-5.784-9.128-5.784-14.274M52.717 60.458a32.932 32.932 0 0 1-4.65.33c-1.39 0-2.756-.092-4.091-.269M76.692 37.232c0 5.28-2.493 9.806-5.13 13.14"></path></g></g></svg>
