<svg width="96" height="96" viewBox="0 0 96 96" xmlns="http://www.w3.org/2000/svg"><title>Sushi</title><g stroke="#000" stroke-width="1.7" fill="none" fill-rule="evenodd" stroke-linejoin="bevel"><path d="M24 37.737v3.337M52 37.384v3.69M30 35.85v4.568M67.422 41.56c8.34-6.484 10.6-6.287 10.6-4.155v4.701l-4.368 2.85 4.369 1.85s.055 3.245-.017 4.964c-.04.93.127 1.816-1.728 1.816-5.25 0-13.22-18.51-35.532-18.51-19.68 0-23.603 6.076-22.728 9.52.778 3.062 3.395 3.08 9.076 3.401l6.679-.152"></path><path d="M63.757 44.417c-3.746 3.716-9.676 3.288-9.676 3.288h-8.015M35.757 36.277s-3.659 13.239.083 24.09"></path><path d="M46.882 35.85s-3.413 13.884 0 24.866l-19.924-.02c-3.02 0-5.466-1.793-5.466-4.812v-2.298M60.412 47.135v8.77c0 3.019-2.447 4.81-5.466 4.81h-3.458"></path></g></svg>
