<?xml version="1.0" encoding="UTF-8" standalone="no"?>
<svg
   xmlns:dc="http://purl.org/dc/elements/1.1/"
   xmlns:cc="http://creativecommons.org/ns#"
   xmlns:rdf="http://www.w3.org/1999/02/22-rdf-syntax-ns#"
   xmlns:svg="http://www.w3.org/2000/svg"
   xmlns="http://www.w3.org/2000/svg"
   xmlns:sodipodi="http://sodipodi.sourceforge.net/DTD/sodipodi-0.dtd"
   xmlns:inkscape="http://www.inkscape.org/namespaces/inkscape"
   class="zagat-logo-svg"
   width="155"
   height="33"
   viewBox="0 0 155 33"
   version="1.1"
   id="svg34"
   sodipodi:docname="tagaz-logo.svg"
   inkscape:version="0.92.2 5c3e80d, 2017-08-06">
  <metadata
     id="metadata40">
    <rdf:RDF>
      <cc:Work
         rdf:about="">
        <dc:format>image/svg+xml</dc:format>
        <dc:type
           rdf:resource="http://purl.org/dc/dcmitype/StillImage" />
        <dc:title></dc:title>
      </cc:Work>
    </rdf:RDF>
  </metadata>
  <defs
     id="defs38" />
  <sodipodi:namedview
     pagecolor="#ffffff"
     bordercolor="#666666"
     borderopacity="1"
     objecttolerance="10"
     gridtolerance="10"
     guidetolerance="10"
     inkscape:pageopacity="0"
     inkscape:pageshadow="2"
     inkscape:window-width="1751"
     inkscape:window-height="1035"
     id="namedview36"
     showgrid="false"
     inkscape:zoom="4.4689655"
     inkscape:cx="84.961264"
     inkscape:cy="32.69693"
     inkscape:window-x="1440"
     inkscape:window-y="-22"
     inkscape:window-maximized="0"
     inkscape:current-layer="g30" />
  <g
     id="g32"
     style="fill:#b70138;stroke:none">
    <g
       class="zagat-logo-paths"
       id="g30">
      <path
         d="m 36.7,27.4 -2.3,4.7 h 2.3 l 1.4,-2.8 h 11.3 l 1.3,2.8 h 2.4 L 50.8,27.4 H 36.7"
         id="path4"
         inkscape:connector-curvature="0" />
      <path
         d="m 43.6,0.1 -16.1,32 h 2.4 L 43.8,4 57.7,32.1 h 2.5 L 44,0.1 h -0.4"
         id="path6"
         inkscape:connector-curvature="0" />
      <path
         d="m 129.2091,7.5095983 v 2 h 10 l -11.8,22.1999997 v 0.4 h 24.7 v -1.9 h -21.6 l 12.1,-22.6999997 h -13.4"
         id="path8"
         inkscape:connector-curvature="0" />
      <path
         d="m 129.2091,3.7095983 h 19.9 l -12.1,22.6999997 h 15.1 v -2 h -11.8 l 11.9,-22.2999997 v -0.4 h -23 v 2"
         id="path10"
         inkscape:connector-curvature="0" />
      <path
         d="m 43.8,16.4 2.6,5.9 h -5.3 z m -5.5,7.5 H 49.2 L 43.8,12.8 Z"
         id="path12"
         inkscape:connector-curvature="0" />
      <path
         d="m 91.6,14.1 h -18 V 16 h 16 v 0.7 c 0,7.9 -5.6,14.2 -13.5,14.2 -7.7,0 -13.7,-6.1 -13.7,-14 0,-7.9 6.2,-14 14.2,-14 3.6,0 7.1,1.1 10,3.4 L 87.5,4.4 C 84.4,2.1 80.6,1 76.6,1 67.4,1 60.2,7.9 60.2,16.9 c 0,9 7,15.9 15.9,16 9.3,0 15.5,-7.2 15.5,-16.5 v -2.3"
         id="path14"
         inkscape:connector-curvature="0" />
      <path
         d="M 16.472233,7.3417739 V 31.941774 h 2.1 V 9.3417739 h 7.5 v -2 h -9.6"
         id="path16"
         inkscape:connector-curvature="0" />
      <path
         d="m 2.672233,9.3417739 h 7.5 V 31.941774 h 2.1 V 7.3417739 h -9.6 v 2"
         id="path18"
         inkscape:connector-curvature="0" />
      <path
         d="m 2.672233,1.5417739 h 23.4 v 2 h -23.4 z"
         id="path20"
         inkscape:connector-curvature="0" />
      <path
         d="m 76.6,9 c 2.7,0 5.2,1 7.2,2.9 L 84.7,10 c -2.1,-1.9 -5,-3 -8.1,-3 -5.6,0 -9.9,4.3 -9.9,9.9 0,5.7 4.1,10.1 9.4,10.1 5,0 8.5,-3.1 8.8,-7.8 H 73.6 v 1.9 h 8.9 c -0.9,2.6 -3.4,4 -6.4,4 -4.1,0 -7.3,-3.6 -7.3,-8.2 0,-4.5 3.4,-7.9 7.8,-7.9"
         id="path22"
         inkscape:connector-curvature="0" />
      <path
         d="m 107.5,0.1 -16.1,32 h 2.4 L 107.7,4 121.6,32.1 h 2.5 l -16.2,-32 h -0.4"
         id="path24"
         inkscape:connector-curvature="0" />
      <path
         d="m 100.6,27.4 -2.3,4.7 h 2.3 l 1.4,-2.8 h 11.3 l 1.3,2.8 h 2.4 l -2.3,-4.7 h -14.1"
         id="path26"
         inkscape:connector-curvature="0" />
      <path
         d="m 107.7,16.4 2.6,5.9 H 105 Z m -5.5,7.5 h 10.9 l -5.4,-11.1 z"
         id="path28"
         inkscape:connector-curvature="0" />
    </g>
  </g>
</svg>
